# xmcd
#
# Track frame offsets: 
#        150
#        15071
#        32644
#        46910
#        66335
#        84845
#        99327
#        115135
#        129247
#        145494
#        167564
#        180379
#        196987
#        207355
#        222466
#        238494
#
# Disc length: 3402 seconds
#
# Revision: 0
# Processed by: cddbd v1.5.2PL0 Copyright (c) Steve Scherf et al.
# Submitted via: ExactAudioCopy v1.0b3
#
DISCID=d60d4810
DTITLE=Lorde - Pure Heroine (Extended)
DYEAR=2013
DGENRE=Pop
TTITLE0=Tennis Court
TTITLE1=400 Lux
TTITLE2=Royals
TTITLE3=Ribs
TTITLE4=Buzzcut Season
TTITLE5=Team
TTITLE6=Glory and Gore
TTITLE7=Still Sane
TTITLE8=White Teeth Teens
TTITLE9=A World Alone
TTITLE10=No Better
TTITLE11=Bravado
TTITLE12=Million Dollar Bills
TTITLE13=The Love Club
TTITLE14=Biting Down
TTITLE15=Swingin Party
EXTD=
EXTT0=
EXTT1=
EXTT2=
EXTT3=
EXTT4=
EXTT5=
EXTT6=
EXTT7=
EXTT8=
EXTT9=
EXTT10=
EXTT11=
EXTT12=
EXTT13=
EXTT14=
EXTT15=
PLAYORDER=
